<svg width="1104" height="500" viewBox="0 0 1104 500" preserveAspectRatio="xMidYMid meet" fill="none" xmlns="http://www.w3.org/2000/svg">
  <defs>
    <linearGradient id="bg" x1="120" y1="40" x2="1008" y2="472" gradientUnits="userSpaceOnUse">
      <stop offset="0" stop-color="#071A23"/>
      <stop offset="0.45" stop-color="#0C2B38"/>
      <stop offset="1" stop-color="#1D2338"/>
    </linearGradient>
    <radialGradient id="auraLeft" cx="0" cy="0" r="1" gradientUnits="userSpaceOnUse" gradientTransform="translate(304 248) rotate(90) scale(210 210)">
      <stop offset="0" stop-color="#9FD9D2" stop-opacity="0.6"/>
      <stop offset="0.55" stop-color="#6EB8B6" stop-opacity="0.18"/>
      <stop offset="1" stop-color="#6EB8B6" stop-opacity="0"/>
    </radialGradient>
    <radialGradient id="auraRight" cx="0" cy="0" r="1" gradientUnits="userSpaceOnUse" gradientTransform="translate(836 154) rotate(90) scale(220 260)">
      <stop offset="0" stop-color="#CFABB9" stop-opacity="0.24"/>
      <stop offset="0.5" stop-color="#7B6C9F" stop-opacity="0.12"/>
      <stop offset="1" stop-color="#7B6C9F" stop-opacity="0"/>
    </radialGradient>
    <linearGradient id="ringStroke" x1="196" y1="122" x2="404" y2="374" gradientUnits="userSpaceOnUse">
      <stop offset="0" stop-color="#DDF7F2"/>
      <stop offset="0.45" stop-color="#91C2BD"/>
      <stop offset="1" stop-color="#CFABB9"/>
    </linearGradient>
    <linearGradient id="waveStroke" x1="188" y1="250" x2="420" y2="250" gradientUnits="userSpaceOnUse">
      <stop offset="0" stop-color="#E5FCF5" stop-opacity="0.15"/>
      <stop offset="0.5" stop-color="#C5F1E7" stop-opacity="0.95"/>
      <stop offset="1" stop-color="#F5D6E0" stop-opacity="0.2"/>
    </linearGradient>
    <filter id="blur32" x="-80" y="-80" width="1264" height="660" filterUnits="userSpaceOnUse" color-interpolation-filters="sRGB">
      <feGaussianBlur stdDeviation="32"/>
    </filter>
    <filter id="glow" x="154" y="80" width="292" height="340" filterUnits="userSpaceOnUse" color-interpolation-filters="sRGB">
      <feGaussianBlur stdDeviation="8"/>
    </filter>
  </defs>

  <rect width="1104" height="500" rx="36" fill="url(#bg)"/>
  <rect width="1104" height="500" rx="36" fill="url(#auraLeft)"/>
  <rect width="1104" height="500" rx="36" fill="url(#auraRight)"/>

  <g opacity="0.65" filter="url(#blur32)">
    <circle cx="151" cy="106" r="34" fill="#91C2BD"/>
    <circle cx="864" cy="412" r="50" fill="#6C88A7"/>
    <circle cx="964" cy="116" r="28" fill="#CFABB9"/>
  </g>

  <g opacity="0.28" fill="#E5FCF5">
    <circle cx="121" cy="156" r="2.2"/>
    <circle cx="178" cy="95" r="1.8"/>
    <circle cx="221" cy="404" r="2"/>
    <circle cx="274" cy="142" r="1.6"/>
    <circle cx="420" cy="103" r="1.8"/>
    <circle cx="484" cy="373" r="2"/>
    <circle cx="621" cy="123" r="2.4"/>
    <circle cx="694" cy="221" r="1.7"/>
    <circle cx="745" cy="392" r="2.1"/>
    <circle cx="844" cy="94" r="1.8"/>
    <circle cx="903" cy="338" r="2.3"/>
  </g>

  <g filter="url(#glow)">
    <circle cx="300" cy="250" r="110" stroke="#C3FFF0" stroke-opacity="0.22" stroke-width="7"/>
    <circle cx="300" cy="250" r="82" stroke="#B9EAE2" stroke-opacity="0.12" stroke-width="4"/>
  </g>

  <circle cx="300" cy="250" r="104" stroke="url(#ringStroke)" stroke-width="10"/>
  <circle cx="300" cy="250" r="66" fill="#0C2731" fill-opacity="0.7" stroke="#D5F5ED" stroke-opacity="0.22" stroke-width="2"/>

  <path d="M188 250C205 250 215 224 232 224C249 224 256 276 277 276C298 276 301 233 321 233C341 233 350 268 367 268C384 268 393 250 420 250" stroke="url(#waveStroke)" stroke-width="8" stroke-linecap="round" stroke-linejoin="round"/>

  <g opacity="0.88">
    <text x="540" y="220" fill="#F6FFFC" font-size="66" font-family="Avenir Next, Avenir, Helvetica Neue, Arial, sans-serif" font-weight="600" letter-spacing="-1.5">
      BreatheWith
    </text>
    <text x="544" y="266" fill="#BFE2DC" font-size="20" font-family="Avenir Next, Avenir, Helvetica Neue, Arial, sans-serif" font-weight="500" letter-spacing="2.2">
      CALM BREATHING. QUIET FOCUS.
    </text>
  </g>

  <rect x="538" y="300" width="230" height="2" rx="1" fill="#91C2BD" fill-opacity="0.55"/>
  <text x="540" y="346" fill="#D7ECE7" fill-opacity="0.9" font-size="24" font-family="Avenir Next, Avenir, Helvetica Neue, Arial, sans-serif" font-weight="400">
    Simple tools for a balanced life.
  </text>
</svg>
